<svg xmlns="http://www.w3.org/2000/svg" viewBox="0 0 256 256" width="256" height="256">
  <circle cx="128" cy="128" r="120" fill="#F04E30"/>
  <path
    fill="white"
    d="
      M128 58
      C89.3 58 58 89.3 58 128
      C58 166.7 89.3 198 128 198
      L156 198
      L156 160
      L128 160
      C110.3 160 96 145.7 96 128
      C96 110.3 110.3 96 128 96
      C145.7 96 160 110.3 160 128
      L160 172
      C160 172 160 198 186 198
      L198 198
      L198 128
      C198 89.3 166.7 58 128 58
      Z
    "
  />
</svg>